# xmcd CD database file
#
# Track frame offsets:
#	150
#	17867
#	36938
#	50389
#	69584
#	84322
#	101983
#	117130
#	131782
#	148189
#	161944
#	179055
#	201788
#
# Disc length: 2954 seconds
#
# Revision: 1
# Processed by: cddbd v1.5.1PL0 Copyright (c) Steve Scherf et al.
# Submitted via: CDex 1.51
#
DISCID=c50b880d
DTITLE=Pearl Django - Chasing Shadows
DYEAR=2005
DGENRE=Jazz
TTITLE0=No. 19
TTITLE1=Bluesette
TTITLE2=Samba du Caberet Rouge
TTITLE3=Tres Palabras
TTITLE4=I Never Knew
TTITLE5=Besame Mucho
TTITLE6=Long Gone
TTITLE7=Trois et deux
TTITLE8=La vie en rose
TTITLE9=Gypsy-attle
TTITLE10=September Song
TTITLE11=You Must Believe in Spring
TTITLE12=Boise Jump
EXTD=YEAR: 2005
EXTT0=
EXTT1=
EXTT2=
EXTT3=
EXTT4=
EXTT5=
EXTT6=
EXTT7=
EXTT8=
EXTT9=
EXTT10=
EXTT11=
EXTT12=
PLAYORDER=
